mtllib model_0.mtl
o model_0
v -0.47372838854789734 0.3710937798023224 0.04418120160698891 
v -0.5523619651794434 0.2974339723587036 -0.4469555914402008 
v -0.5610989928245544 0.15011435747146606 -0.04602760076522827 
v -0.5523619651794434 0.11111798882484436 -0.41688600182533264 
v -0.0019271599594503641 0.5010817050933838 -0.5371643900871277 
v 0.5222964286804199 0.3840925693511963 -0.4670020043849945 
v -0.08929775655269623 0.1284497082233429 -0.6674659848213196 
v 0.47861114144325256 0.024459389969706535 -0.41688600182533264 
v 0.5485076308250427 0.2844351828098297 0.04418120160698891 
v 0.39997759461402893 0.3710937798023224 0.3849700093269348 
v 0.47861114144325256 0.08945333957672119 0.05420440062880516 
v 0.42618876695632935 0.1934436559677124 0.3949931859970093 
v 0.04175813868641853 0.5184134244918823 0.495225191116333 
v -0.3426724970340729 0.5140804648399353 0.3949931859970093 
v 0.04175813868641853 0.20210951566696167 0.6054803729057312 
v -0.32519838213920593 0.2714363932609558 0.4350860118865967 
v -0.47372838854789734 0.3710937798023224 0.04418120160698891 
v -0.3426724970340729 0.5140804648399353 0.3949931859970093 
v -0.0368754006922245 0.49674874544143677 -0.025981200858950615 
v 0.04175813868641853 0.5184134244918823 0.495225191116333 
v -0.0368754006922245 0.49674874544143677 -0.025981200858950615 
v 0.04175813868641853 0.5184134244918823 0.495225191116333 
v 0.5485076308250427 0.2844351828098297 0.04418120160698891 
v 0.39997759461402893 0.3710937798023224 0.3849700093269348 
v 0.39997759461402893 0.3710937798023224 0.3849700093269348 
v 0.04175813868641853 0.5184134244918823 0.495225191116333 
v 0.42618876695632935 0.1934436559677124 0.3949931859970093 
v 0.04175813868641853 0.20210951566696167 0.6054803729057312 
v -0.5523619651794434 0.2974339723587036 -0.4469555914402008 
v -0.0019271599594503641 0.5010817050933838 -0.5371643900871277 
v -0.5523619651794434 0.11111798882484436 -0.41688600182533264 
v -0.08929775655269623 0.1284497082233429 -0.6674659848213196 
v -0.0019271599594503641 0.5010817050933838 -0.5371643900871277 
v -0.0368754006922245 0.49674874544143677 -0.025981200858950615 
v 0.5222964286804199 0.3840925693511963 -0.4670020043849945 
v 0.5485076308250427 0.2844351828098297 0.04418120160698891 
v -0.5523619651794434 0.2974339723587036 -0.4469555914402008 
v -0.47372838854789734 0.3710937798023224 0.04418120160698891 
v -0.0019271599594503641 0.5010817050933838 -0.5371643900871277 
v -0.0368754006922245 0.49674874544143677 -0.025981200858950615 
v 0.5222964286804199 0.3840925693511963 -0.4670020043849945 
v 0.5485076308250427 0.2844351828098297 0.04418120160698891 
v 0.47861114144325256 0.024459389969706535 -0.41688600182533264 
v 0.47861114144325256 0.08945333957672119 0.05420440062880516 
v -0.3426724970340729 0.5140804648399353 0.3949931859970093 
v -0.47372838854789734 0.3710937798023224 0.04418120160698891 
v -0.32519838213920593 0.2714363932609558 0.4350860118865967 
v -0.5610989928245544 0.15011435747146606 -0.04602760076522827 
v -0.32519838213920593 0.2714363932609558 0.4350860118865967 
v -0.5610989928245544 0.15011435747146606 -0.04602760076522827 
v -0.307724267244339 -0.02753577008843422 0.48520201444625854 
v -0.47372838854789734 -0.018869910389184952 -0.03600440174341202 
v 0.47861114144325256 0.024459389969706535 -0.41688600182533264 
v 0.47861114144325256 0.08945333957672119 0.05420440062880516 
v 0.382503479719162 -0.014536979608237743 -0.3868164122104645 
v 0.48734819889068604 0.0027947400230914354 0.06422760337591171 
v -0.5523619651794434 0.11111798882484436 -0.41688600182533264 
v -0.08929775655269623 0.1284497082233429 -0.6674659848213196 
v -0.46499133110046387 -0.03186869993805885 -0.3667699992656708 
v -0.054349519312381744 -0.03186869993805885 -0.49707159399986267 
v 0.42618876695632935 0.1934436559677124 0.3949931859970093 
v 0.04175813868641853 0.20210951566696167 0.6054803729057312 
v 0.45239996910095215 0.011460600420832634 0.415039598941803 
v 0.059232261031866074 0.024459389969706535 0.5653876066207886 
v 0.04175813868641853 0.20210951566696167 0.6054803729057312 
v -0.32519838213920593 0.2714363932609558 0.4350860118865967 
v 0.059232261031866074 0.024459389969706535 0.5653876066207886 
v -0.307724267244339 -0.02753577008843422 0.48520201444625854 
v 0.47861114144325256 0.08945333957672119 0.05420440062880516 
v 0.42618876695632935 0.1934436559677124 0.3949931859970093 
v 0.48734819889068604 0.0027947400230914354 0.06422760337591171 
v 0.45239996910095215 0.011460600420832634 0.415039598941803 
v -0.08929775655269623 0.1284497082233429 -0.6674659848213196 
v 0.47861114144325256 0.024459389969706535 -0.41688600182533264 
v -0.054349519312381744 -0.03186869993805885 -0.49707159399986267 
v 0.382503479719162 -0.014536979608237743 -0.3868164122104645 
v -0.5610989928245544 0.15011435747146606 -0.04602760076522827 
v -0.5523619651794434 0.11111798882484436 -0.41688600182533264 
v -0.47372838854789734 -0.018869910389184952 -0.03600440174341202 
v -0.46499133110046387 -0.03186869993805885 -0.3667699992656708 
vn -0.9818570613861084 0.1839928776025772 0.04586252197623253 
vn -0.9818570613861084 0.1839928776025772 0.04586252197623253 
vn -0.9818570613861084 0.1839928776025772 0.04586252197623253 
vn -0.9818570613861084 0.1839928776025772 0.04586252197623253 
vn 0.2908138930797577 0.06001253053545952 -0.9548956751823425 
vn 0.2908138930797577 0.06001253053545952 -0.9548956751823425 
vn 0.2908138930797577 0.06001253053545952 -0.9548956751823425 
vn 0.2908138930797577 0.06001253053545952 -0.9548956751823425 
vn 0.9435058832168579 -0.11295391619205475 0.31150925159454346 
vn 0.9435058832168579 -0.11295391619205475 0.31150925159454346 
vn 0.9435058832168579 -0.11295391619205475 0.31150925159454346 
vn 0.9435058832168579 -0.11295391619205475 0.31150925159454346 
vn -0.30552369356155396 0.23127537965774536 0.9236704111099243 
vn -0.30552369356155396 0.23127537965774536 0.9236704111099243 
vn -0.30552369356155396 0.23127537965774536 0.9236704111099243 
vn -0.30552369356155396 0.23127537965774536 0.9236704111099243 
vn -0.14477483928203583 0.9780020713806152 -0.15017375349998474 
vn -0.14477483928203583 0.9780020713806152 -0.15017375349998474 
vn -0.14477483928203583 0.9780020713806152 -0.15017375349998474 
vn -0.14477483928203583 0.9780020713806152 -0.15017375349998474 
vn 0.3489675223827362 0.9324283003807068 -0.09380380809307098 
vn 0.3489675223827362 0.9324283003807068 -0.09380380809307098 
vn 0.3489675223827362 0.9324283003807068 -0.09380380809307098 
vn 0.3489675223827362 0.9324283003807068 -0.09380380809307098 
vn 0.41894733905792236 0.23753350973129272 0.8763908743858337 
vn 0.41894733905792236 0.23753350973129272 0.8763908743858337 
vn 0.41894733905792236 0.23753350973129272 0.8763908743858337 
vn 0.41894733905792236 0.23753350973129272 0.8763908743858337 
vn -0.35673415660858154 0.21250951290130615 -0.9097144603729248 
vn -0.35673415660858154 0.21250951290130615 -0.9097144603729248 
vn -0.35673415660858154 0.21250951290130615 -0.9097144603729248 
vn -0.35673415660858154 0.21250951290130615 -0.9097144603729248 
vn 0.26849400997161865 0.9582676887512207 0.0981530249118805 
vn 0.26849400997161865 0.9582676887512207 0.0981530249118805 
vn 0.26849400997161865 0.9582676887512207 0.0981530249118805 
vn 0.26849400997161865 0.9582676887512207 0.0981530249118805 
vn -0.32073673605918884 0.9455938935279846 -0.05459024757146835 
vn -0.32073673605918884 0.9455938935279846 -0.05459024757146835 
vn -0.32073673605918884 0.9455938935279846 -0.05459024757146835 
vn -0.32073673605918884 0.9455938935279846 -0.05459024757146835 
vn 0.9784404635429382 -0.20231705904006958 -0.04149730131030083 
vn 0.9784404635429382 -0.20231705904006958 -0.04149730131030083 
vn 0.9784404635429382 -0.20231705904006958 -0.04149730131030083 
vn 0.9784404635429382 -0.20231705904006958 -0.04149730131030083 
vn -0.9220976829528809 0.08667110651731491 0.37712597846984863 
vn -0.9220976829528809 0.08667110651731491 0.37712597846984863 
vn -0.9220976829528809 0.08667110651731491 0.37712597846984863 
vn -0.9220976829528809 0.08667110651731491 0.37712597846984863 
vn -0.906889021396637 -0.16139888763427734 0.3892335295677185 
vn -0.906889021396637 -0.16139888763427734 0.3892335295677185 
vn -0.906889021396637 -0.16139888763427734 0.3892335295677185 
vn -0.906889021396637 -0.16139888763427734 0.3892335295677185 
vn 0.8041514158248901 -0.5926526188850403 -0.04586252197623253 
vn 0.8041514158248901 -0.5926526188850403 -0.04586252197623253 
vn 0.8041514158248901 -0.5926526188850403 -0.04586252197623253 
vn 0.8041514158248901 -0.5926526188850403 -0.04586252197623253 
vn -0.30494844913482666 -0.6388261318206787 -0.7063339352607727 
vn -0.30494844913482666 -0.6388261318206787 -0.7063339352607727 
vn -0.30494844913482666 -0.6388261318206787 -0.7063339352607727 
vn -0.30494844913482666 -0.6388261318206787 -0.7063339352607727 
vn 0.42310115694999695 0.007531738840043545 0.9060511589050293 
vn 0.42310115694999695 0.007531738840043545 0.9060511589050293 
vn 0.42310115694999695 0.007531738840043545 0.9060511589050293 
vn 0.42310115694999695 0.007531738840043545 0.9060511589050293 
vn -0.33834704756736755 -0.003756156424060464 0.9410139322280884 
vn -0.33834704756736755 -0.003756156424060464 0.9410139322280884 
vn -0.33834704756736755 -0.003756156424060464 0.9410139322280884 
vn -0.33834704756736755 -0.003756156424060464 0.9410139322280884 
vn 0.9823483228683472 0.1504286229610443 0.1111890971660614 
vn 0.9823483228683472 0.1504286229610443 0.1111890971660614 
vn 0.9823483228683472 0.1504286229610443 0.1111890971660614 
vn 0.9823483228683472 0.1504286229610443 0.1111890971660614 
vn 0.17411166429519653 -0.7410053610801697 -0.6485338807106018 
vn 0.17411166429519653 -0.7410053610801697 -0.6485338807106018 
vn 0.17411166429519653 -0.7410053610801697 -0.6485338807106018 
vn 0.17411166429519653 -0.7410053610801697 -0.6485338807106018 
vn -0.878334105014801 -0.47804227471351624 0.002184694167226553 
vn -0.878334105014801 -0.47804227471351624 0.002184694167226553 
vn -0.878334105014801 -0.47804227471351624 0.002184694167226553 
vn -0.878334105014801 -0.47804227471351624 0.002184694167226553 
vt 0.5182087421417236 0.6929951906204224 
vt 0.5586502552032471 0.4868844151496887 
vt 0.6150753498077393 0.6377142071723938 
vt 0.6254807114601135 0.48036709427833557 
vt 0.6926330327987671 0.7139437794685364 
vt 0.7441235780715942 0.49305260181427 
vt 0.8695245385169983 0.7497891187667847 
vt 0.9011697769165039 0.483509361743927 
vt 0.3723188042640686 0.7693411111831665 
vt 0.38604962825775146 0.9295977354049683 
vt 0.27834853529930115 0.767362654209137 
vt 0.30892106890678406 0.9264554381370544 
vt 0.5420231223106384 0.6150199174880981 
vt 0.5551102757453918 0.7554917931556702 
vt 0.3949532210826874 0.640390932559967 
vt 0.4429037868976593 0.7554917931556702 
vt 0.8305848240852356 0.9497316479682922 
vt 0.6609877943992615 0.9226148724555969 
vt 0.8324084281921387 0.7601470351219177 
vt 0.5969463586807251 0.7564228177070618 
vt 0.6993911266326904 0.950197160243988 
vt 0.464894562959671 0.9298304915428162 
vt 0.6551950573921204 0.6750724911689758 
vt 0.5054433941841125 0.7545607089996338 
vt 0.610140860080719 0.4406811594963074 
vt 0.6492950916290283 0.6187440752983093 
vt 0.5311886668205261 0.42159467935562134 
vt 0.5001870393753052 0.6173475384712219 
vt 0.8017286062240601 0.9307615756988525 
vt 0.6926330327987671 0.7139437794685364 
vt 0.8843280673027039 0.9160975217819214 
vt 0.8695245385169983 0.7497891187667847 
vt 0.12269686907529831 0.6768181920051575 
vt 0.10381700098514557 0.445220023393631 
vt 0.3635224997997284 0.643300473690033 
vt 0.38057875633239746 0.41193506121635437 
vt 0.863731861114502 0.8721055388450623 
vt 0.638889729976654 0.8721055388450623 
vt 0.8686663508415222 0.6379469633102417 
vt 0.6404988169670105 0.682520866394043 
vt 0.5060870051383972 0.2316608875989914 
vt 0.48570531606674194 0.46488842368125916 
vt 0.3442135453224182 0.2670406997203827 
vt 0.3928077816963196 0.47862136363983154 
vt 0.6736458539962769 0.8676830530166626 
vt 0.5201396346092224 0.8403335213661194 
vt 0.6695695519447327 0.7724834084510803 
vt 0.4635000228881836 0.764453113079071 
vt 0.5760283470153809 0.877342700958252 
vt 0.6150753498077393 0.6377142071723938 
vt 0.6588423252105713 0.8811832666397095 
vt 0.6926330327987671 0.6476065516471863 
vt 0.6205462217330933 0.02671394683420658 
vt 0.4037495255470276 0.03986499831080437 
vt 0.6030609011650085 -0.000286446011159569 
vt 0.40235498547554016 0.0027394599746912718 
vt 0.7504526376724243 0.17125914990901947 
vt 0.5147760510444641 0.2069881111383438 
vt 0.7195582985877991 0.14169837534427643 
vt 0.524859607219696 0.13518103957176208 
vt 0.4332493245601654 0.20628982782363892 
vt 0.28381940722465515 0.21129421889781952 
vt 0.4329274892807007 0.1579917073249817 
vt 0.2942247986793518 0.15170714259147644 
vt 0.8549355268478394 0.21769516170024872 
vt 0.9824819564819336 0.20500963926315308 
vt 0.8581537008285522 0.29927825927734375 
vt 0.9625293612480164 0.285428911447525 
vt 0.8613718748092651 0.03986499831080437 
vt 0.7004638910293579 0.05802043527364731 
vt 0.8629809617996216 0.0027394599746912718 
vt 0.7019656896591187 -0.0030795899219810963 
vt 0.48613440990448 0.2297987937927246 
vt 0.22278164327144623 0.14239665865898132 
vt 0.4655381739139557 0.16020295023918152 
vt 0.26547589898109436 0.12482313066720963 
vt 0.3004465699195862 0.44393983483314514 
vt 0.31321194767951965 0.6010541915893555 
vt 0.22235256433486938 0.4454527795314789 
vt 0.22825251519680023 0.5723080635070801 
s on 
f 1/1/1 2/2/2 3/3/3 
f 2/2/2 4/4/4 3/3/3 
f 3/3/3 4/4/4 4/4/4 
f 4/4/4 5/5/5 4/4/4 
f 4/4/4 5/5/5 5/5/5 
f 5/5/5 6/6/6 5/5/5 
f 5/5/5 6/6/6 7/7/7 
f 6/6/6 8/8/8 7/7/7 
f 7/7/7 8/8/8 8/8/8 
f 8/8/8 9/9/9 8/8/8 
f 8/8/8 9/9/9 9/9/9 
f 9/9/9 10/10/10 9/9/9 
f 9/9/9 10/10/10 11/11/11 
f 10/10/10 12/12/12 11/11/11 
f 11/11/11 12/12/12 12/12/12 
f 12/12/12 13/13/13 12/12/12 
f 12/12/12 13/13/13 13/13/13 
f 13/13/13 14/14/14 13/13/13 
f 13/13/13 14/14/14 15/15/15 
f 14/14/14 16/16/16 15/15/15 
f 15/15/15 16/16/16 16/16/16 
f 16/16/16 17/17/17 16/16/16 
f 16/16/16 17/17/17 17/17/17 
f 17/17/17 18/18/18 17/17/17 
f 17/17/17 18/18/18 19/19/19 
f 18/18/18 20/20/20 19/19/19 
f 19/19/19 20/20/20 20/20/20 
f 20/20/20 21/21/21 20/20/20 
f 20/20/20 21/21/21 21/21/21 
f 21/21/21 22/22/22 21/21/21 
f 21/21/21 22/22/22 23/23/23 
f 22/22/22 24/24/24 23/23/23 
f 23/23/23 24/24/24 24/24/24 
f 24/24/24 25/25/25 24/24/24 
f 24/24/24 25/25/25 25/25/25 
f 25/25/25 26/26/26 25/25/25 
f 25/25/25 26/26/26 27/27/27 
f 26/26/26 28/28/28 27/27/27 
f 27/27/27 28/28/28 28/28/28 
f 28/28/28 29/29/29 28/28/28 
f 28/28/28 29/29/29 29/29/29 
f 29/29/29 30/30/30 29/29/29 
f 29/29/29 30/30/30 31/31/31 
f 30/30/30 32/32/32 31/31/31 
f 31/31/31 32/32/32 32/32/32 
f 32/32/32 33/33/33 32/32/32 
f 32/32/32 33/33/33 33/33/33 
f 33/33/33 34/34/34 33/33/33 
f 33/33/33 34/34/34 35/35/35 
f 34/34/34 36/36/36 35/35/35 
f 35/35/35 36/36/36 36/36/36 
f 36/36/36 37/37/37 36/36/36 
f 36/36/36 37/37/37 37/37/37 
f 37/37/37 38/38/38 37/37/37 
f 37/37/37 38/38/38 39/39/39 
f 38/38/38 40/40/40 39/39/39 
f 39/39/39 40/40/40 40/40/40 
f 40/40/40 41/41/41 40/40/40 
f 40/40/40 41/41/41 41/41/41 
f 41/41/41 42/42/42 41/41/41 
f 41/41/41 42/42/42 43/43/43 
f 42/42/42 44/44/44 43/43/43 
f 43/43/43 44/44/44 44/44/44 
f 44/44/44 45/45/45 44/44/44 
f 44/44/44 45/45/45 45/45/45 
f 45/45/45 46/46/46 45/45/45 
f 45/45/45 46/46/46 47/47/47 
f 46/46/46 48/48/48 47/47/47 
f 47/47/47 48/48/48 48/48/48 
f 48/48/48 49/49/49 48/48/48 
f 48/48/48 49/49/49 49/49/49 
f 49/49/49 50/50/50 49/49/49 
f 49/49/49 50/50/50 51/51/51 
f 50/50/50 52/52/52 51/51/51 
f 51/51/51 52/52/52 52/52/52 
f 52/52/52 53/53/53 52/52/52 
f 52/52/52 53/53/53 53/53/53 
f 53/53/53 54/54/54 53/53/53 
f 53/53/53 54/54/54 55/55/55 
f 54/54/54 56/56/56 55/55/55 
f 55/55/55 56/56/56 56/56/56 
f 56/56/56 57/57/57 56/56/56 
f 56/56/56 57/57/57 57/57/57 
f 57/57/57 58/58/58 57/57/57 
f 57/57/57 58/58/58 59/59/59 
f 58/58/58 60/60/60 59/59/59 
f 59/59/59 60/60/60 60/60/60 
f 60/60/60 61/61/61 60/60/60 
f 60/60/60 61/61/61 61/61/61 
f 61/61/61 62/62/62 61/61/61 
f 61/61/61 62/62/62 63/63/63 
f 62/62/62 64/64/64 63/63/63 
f 63/63/63 64/64/64 64/64/64 
f 64/64/64 65/65/65 64/64/64 
f 64/64/64 65/65/65 65/65/65 
f 65/65/65 66/66/66 65/65/65 
f 65/65/65 66/66/66 67/67/67 
f 66/66/66 68/68/68 67/67/67 
f 67/67/67 68/68/68 68/68/68 
f 68/68/68 69/69/69 68/68/68 
f 68/68/68 69/69/69 69/69/69 
f 69/69/69 70/70/70 69/69/69 
f 69/69/69 70/70/70 71/71/71 
f 70/70/70 72/72/72 71/71/71 
f 71/71/71 72/72/72 72/72/72 
f 72/72/72 73/73/73 72/72/72 
f 72/72/72 73/73/73 73/73/73 
f 73/73/73 74/74/74 73/73/73 
f 73/73/73 74/74/74 75/75/75 
f 74/74/74 76/76/76 75/75/75 
f 75/75/75 76/76/76 76/76/76 
f 76/76/76 77/77/77 76/76/76 
f 76/76/76 77/77/77 77/77/77 
f 77/77/77 78/78/78 77/77/77 
f 77/77/77 78/78/78 79/79/79 
f 78/78/78 80/80/80 79/79/79 

